<svg version="1.0" xmlns="http://www.w3.org/2000/svg"
 width="512.000000pt" height="512.000000pt" viewBox="0 0 512.000000 512.000000"
 preserveAspectRatio="xMidYMid meet">
<g transform="translate(0.000000,512.000000) scale(0.100000,-0.100000)"
fill="#000000" stroke="none">
<path d="M1778 4302 c-177 -177 -178 -178 -178 -222 0 -44 1 -45 178 -222 174
-174 178 -178 220 -178 56 0 82 26 82 81 0 39 -6 48 -97 140 l-97 99 1154 0
1154 0 -97 -99 c-91 -92 -97 -101 -97 -140 0 -55 26 -81 82 -81 42 0 46 4 220
178 177 177 178 178 178 222 0 44 -1 45 -178 222 -174 174 -178 178 -220 178
-56 0 -82 -26 -82 -81 0 -39 6 -48 97 -140 l97 -99 -1154 0 -1154 0 97 99 c91
92 97 101 97 140 0 55 -26 81 -82 81 -42 0 -46 -4 -220 -178z"/>
<path d="M818 3342 c-174 -174 -178 -178 -178 -220 0 -56 26 -82 81 -82 39 0
48 6 140 97 l99 97 0 -1154 0 -1154 -99 97 c-92 91 -101 97 -140 97 -55 0 -81
-26 -81 -82 0 -42 4 -46 178 -220 239 -239 205 -239 444 0 174 174 178 178
178 220 0 56 -26 82 -81 82 -39 0 -48 -6 -140 -97 l-99 -97 0 1154 0 1154 99
-97 c92 -91 101 -97 140 -97 55 0 81 26 81 82 0 42 -4 46 -178 220 -177 177
-178 178 -222 178 -44 0 -45 -1 -222 -178z"/>
<path d="M1620 3500 c-20 -20 -20 -33 -20 -1420 0 -1387 0 -1400 20 -1420 19
-19 33 -20 220 -20 187 0 201 1 220 20 27 27 27 93 0 120 -18 18 -33 20 -160
20 l-140 0 0 240 0 240 220 0 c277 0 260 -10 260 160 0 140 -10 160 -80 160
-60 0 -80 -25 -80 -100 l0 -60 -160 0 -160 0 0 320 0 320 160 0 160 0 0 -60
c0 -75 20 -100 80 -100 60 0 80 25 80 100 l0 60 60 0 c75 0 100 20 100 80 0
27 -7 47 -20 60 -19 19 -33 20 -320 20 l-300 0 0 560 0 560 640 0 640 0 0
-560 0 -560 -140 0 c-127 0 -142 -2 -160 -20 -13 -13 -20 -33 -20 -60 0 -27 7
-47 20 -60 19 -19 33 -20 380 -20 347 0 361 1 380 20 13 13 20 33 20 60 0 27
-7 47 -20 60 -18 18 -33 20 -160 20 l-140 0 0 560 0 560 560 0 560 0 0 -560 0
-560 -220 0 c-207 0 -221 -1 -240 -20 -13 -13 -20 -33 -20 -60 0 -27 7 -47 20
-60 19 -19 33 -20 240 -20 l220 0 0 -640 0 -640 -720 0 -720 0 0 380 c0 367
-1 381 -20 400 -27 27 -93 27 -120 0 -19 -19 -20 -33 -20 -400 l0 -380 -140 0
c-127 0 -142 -2 -160 -20 -27 -27 -27 -93 0 -120 20 -20 33 -20 1020 -20 987
0 1000 0 1020 20 20 20 20 33 20 1420 0 1387 0 1400 -20 1420 -20 20 -33 20
-1420 20 -1387 0 -1400 0 -1420 -20z"/>
</g>
</svg>
