<svg width="24" height="24" viewBox="0 0 24 24" fill="none" xmlns="http://www.w3.org/2000/svg">
<path d="M20.38 20.38L20.908 20.9127L20.9127 20.908L20.38 20.38ZM21.73 6.27L22.4613 6.10339L22.4611 6.10242L21.73 6.27ZM6.26999 21.73L6.10241 22.461L6.10337 22.4613L6.26999 21.73ZM15 2V2.75V2ZM6.23999 7.98L6.97049 8.14989L6.97057 8.14956L6.23999 7.98ZM12 7.98L12.7314 7.81415L12.7306 7.81045L12 7.98ZM10.36 12.06L9.84417 11.5155L9.84157 11.518L10.36 12.06ZM7.88 12.06L7.36419 12.6045L7.36549 12.6057L7.88 12.06ZM9.0946 7.95001C8.68039 7.95001 8.3446 8.2858 8.3446 8.70001C8.3446 9.11423 8.68039 9.45001 9.0946 9.45001V7.95001ZM9.10359 9.45001C9.5178 9.45001 9.85359 9.11423 9.85359 8.70001C9.85359 8.2858 9.5178 7.95001 9.10359 7.95001V9.45001ZM21.25 9V15H22.75V9H21.25ZM21.25 15C21.25 17.4253 20.7605 18.9307 19.8473 19.852L20.9127 20.908C22.2395 19.5693 22.75 17.5747 22.75 15H21.25ZM20.9103 19.8497L14.5303 13.4697L13.4697 14.5303L19.8497 20.9103L20.9103 19.8497ZM14.5303 14.5303L22.2603 6.80033L21.1997 5.73967L13.4697 13.4697L14.5303 14.5303ZM20.9988 6.43662C21.1635 7.15979 21.25 8.00204 21.25 9H22.75C22.75 7.91796 22.6565 6.96021 22.4613 6.10339L20.9988 6.43662ZM21.1997 5.73967L5.73966 21.1997L6.80032 22.2603L22.2603 6.80033L21.1997 5.73967ZM6.43757 20.999C5.08344 20.6885 4.20574 20.0915 3.64147 19.1925C3.05795 18.2629 2.75 16.9167 2.75 15H1.25C1.25 17.0433 1.57205 18.7171 2.37102 19.99C3.18924 21.2935 4.44654 22.0814 6.10241 22.461L6.43757 20.999ZM2.75 15V9H1.25V15H2.75ZM2.75 9C2.75 6.57397 3.2398 5.07086 4.15533 4.15533C5.07086 3.2398 6.57397 2.75 9 2.75V1.25C6.42603 1.25 4.42914 1.7602 3.09467 3.09467C1.7602 4.42914 1.25 6.42603 1.25 9H2.75ZM9 2.75H15V1.25H9V2.75ZM15 2.75C16.9167 2.75 18.2629 3.05795 19.1925 3.64148C20.0915 4.20575 20.6886 5.08346 20.999 6.43758L22.4611 6.10242C22.0815 4.44655 21.2935 3.18925 19.99 2.37102C18.7171 1.57205 17.0433 1.25 15 1.25V2.75ZM19.852 19.8473C18.9307 20.7605 17.4253 21.25 15 21.25V22.75C17.5747 22.75 19.5693 22.2395 20.908 20.9127L19.852 19.8473ZM15 21.25H9V22.75H15V21.25ZM9 21.25C8.00205 21.25 7.15979 21.1635 6.4366 20.9987L6.10337 22.4613C6.96019 22.6565 7.91795 22.75 9 22.75V21.25ZM6.80032 22.2603L14.5303 14.5303L13.4697 13.4697L5.73966 21.1997L6.80032 22.2603ZM6.97057 8.14956C7.21594 7.09231 8.12403 6.5325 9.11999 6.5325C10.116 6.5325 11.024 7.09231 11.2694 8.14956L12.7306 7.81045C12.2959 5.93769 10.664 5.0325 9.11999 5.0325C7.57595 5.0325 5.94404 5.93769 5.50941 7.81045L6.97057 8.14956ZM11.2686 8.14585C11.5649 9.45265 10.7556 10.6521 9.84417 11.5155L10.8758 12.6045C11.8644 11.6679 13.2151 9.94735 12.7314 7.81415L11.2686 8.14585ZM9.84157 11.518C9.4436 11.8987 8.80769 11.9039 8.39451 11.5143L7.36549 12.6057C8.35232 13.5361 9.89637 13.5413 10.8784 12.602L9.84157 11.518ZM8.39581 11.5155C7.48089 10.6488 6.66767 9.45204 6.97049 8.14989L5.50948 7.81012C5.01231 9.94796 6.37912 11.6712 7.36419 12.6045L8.39581 11.5155ZM9.0946 9.45001H9.10359V7.95001H9.0946V9.45001Z" fill="#292D32"/>
</svg>
